# xmcd CD database file
#
# Track frame offsets:
#	150
#	16582
#	34695
#	55401
#	81687
#	102574
#	119140
#	144036
#	163464
#	192790
#	216061
#	234785
#
# Disc length: 3624 seconds
#
# Revision: 1
# Processed by: cddbd v1.5.2PL0 Copyright (c) Steve Scherf et al.
# Submitted via: CDex 1.70beta2
#
DISCID=a40e260c
DTITLE=Peter Nathanson - Urban Blues (Live)
DYEAR=2006
DGENRE=Blues
TTITLE0=Gotta Move
TTITLE1=I Don't Believe
TTITLE2=Louisiana Blues
TTITLE3=Give Me A Penny
TTITLE4=Stay With Me Baby
TTITLE5=Homework
TTITLE6=Woke Up Screaming
TTITLE7=Big City Lights
TTITLE8=Don't Turn Me From Your Door
TTITLE9=You Got Me
TTITLE10=Walkin' Blues
TTITLE11=The Worlds In A Tangle
EXTD=YEAR: 2006
EXTT0=
EXTT1=
EXTT2=
EXTT3=
EXTT4=
EXTT5=
EXTT6=
EXTT7=
EXTT8=
EXTT9=
EXTT10=
EXTT11=
PLAYORDER=
